PathFileType   4   (X/Y/Z)																																																																																																																						
DataRate	CameraRate	NumFrames	NumMarkers	Units	OrigDataRate	OrigDataStartFrame	OrigNumFrames																																																																																																															
120	120	8	37	mm	120	73	116																																																																																																															
Frame#	Time	Sternum	R.Acromium	L.Acromium	Top.Head	R.ASIS	L.ASIS	V.Sacral	R.Thigh.Upper	R.Thigh.Front	R.Thigh.Rear	R.Knee.Lat	R.Knee.Med	R.Shank.Upper	R.Shank.Front	R.Shank.Rear	R.Ankle.Lat	R.Ankle.Med	R.Heel	R.Midfoot.Sup	R.Midfoot.Lat	R.Toe.Lat	R.Toe.Med	R.Toe.Tip	L.Thigh.Upper	L.Thigh.Front	L.Thigh.Rear	L.Knee.Lat	L.Knee.Med	L.Shank.Upper	L.Shank.Front	L.Shank.Rear	L.Ankle.Lat	L.Ankle.Med	L.Heel	L.Midfoot.Sup	L.Midfoot.Lat	L.Toe.Lat	L.Toe.Med	L.Toe.Tip																																																																														
 	 	X1	Y1	Z1	X2	Y2	Z2	X3	Y3	Z3	X4	Y4	Z4	X5	Y5	Z5	X6	Y6	Z6	X7	Y7	Z7	X8	Y8	Z8	X9	Y9	Z9	X10	Y10	Z10	X11	Y11	Z11	X12	Y12	Z12	X13	Y13	Z13	X14	Y14	Z14	X15	Y15	Z15	X16	Y16	Z16	X17	Y17	Z17	X18	Y18	Z18	X19	Y19	Z19	X20	Y20	Z20	X21	Y21	Z21	X22	Y22	Z22	X23	Y23	Z23	X24	Y24	Z24	X25	Y25	Z25	X26	Y26	Z26	X27	Y27	Z27	X28	Y28	Z28	X29	Y29	Z29	X30	Y30	Z30	X31	Y31	Z31	X32	Y32	Z32	X33	Y33	Z33	X34	Y34	Z34	X35	Y35	Z35	X36	Y36	Z36	X37	Y37	Z37	X38	Y38	Z38	X39	Y39	Z39
																																																																																																																						
73	0.73333	1352.512302	-0.000992919	1.24E+03	1241.976065	-160.4625222	1363.825007	1246.084419	163.6853836	1377.127209	1348.489999	-9.995724821	1614.228756	1337.299672	-119.563877	907.692162	1342.614506	121.1976851	899.857022	1158.586804	-5.695750883	921.1255857	1335.090217	-151.852957	653.4850077	1394.668388	-72.89581202	617.3293454	1353.602504	-144.0380039	554.6481177	1341.021894	-128.7803171	477.5533297	1343.339159	-28.27664901	463.8454023	1323.474123	-139.9773559	402.7914962	1386.209754	-92.759033	367.8343656	1332.024838	-148.0192813	328.1146898	1316.625224	-126.2596959	81.06352522	1324.239776	-48.83628676	93.14733011	1256.336324	-81.79932302	59.51191949	1383.157523	-50.48617332	73.68667202	1379.056656	-145.6838404	56.01999872	1459.147668	-153.7519611	37.30879343	1460.842132	-57.55224411	48.96714861	1514.86037	-85.7250635	51.12399574	1292.730015	155.8898652	649.6154341	1360.901764	93.1736068	622.2480105	1294.223043	143.1256019	559.1601439	1283.855982	130.2344758	449.7469392	1284.802707	33.90932835	450.4411501	1245.132052	146.028905	392.1712201	1237.796114	97.96343807	334.8168284	1207.139616	155.397025	378.7598899	1012.190142	125.837295	188.2802781	1029.706506	46.58044596	198.9475563	976.830407	79.29350631	252.2434541	1024.181077	55.87355549	106.8407467	1019.365322	143.3687015	122.4245191	1016.233921	152.6622596	62.71738395	1020.680702	62.03409965	48.26680864	1034.270793	84.48225282	6.78313077
74	0.74167	1362.191122	-0.000992919	1.25E+03	1251.642121	-160.4625222	1365.776252	1255.749065	163.6853836	1379.07889	1358.12952	-9.995724821	1616.191286	1346.905663	-119.563877	909.4081895	1352.204348	121.1976851	901.5621194	1168.220842	-5.695750883	923.2096731	1341.388048	-151.852957	653.7081438	1400.270203	-72.89581202	616.429703	1358.023607	-144.0380039	554.5381191	1343.983964	-128.7803171	477.6956404	1346.040986	-28.27664901	463.9462531	1325.549948	-139.9773559	402.984098	1388.107986	-92.759033	367.7101377	1333.722886	-148.0192813	328.2650026	1317.074041	-126.2596959	81.29487888	1324.749609	-48.83628676	93.34001969	1256.792951	-81.79932302	59.75927032	1383.622716	-50.48617332	73.85717761	1379.511145	-145.6838404	56.19299232	1459.590804	-153.7519611	37.43326226	1461.292332	-57.55224411	49.0905886	1515.311867	-85.7250635	51.21470497	1304.977531	155.8898652	652.3578194	1373.601971	93.1736068	626.1461905	1307.998755	143.1256019	561.9406702	1299.481913	130.2344758	452.367915	1300.416772	33.90932835	453.0780235	1261.483029	146.028905	394.3524514	1254.734386	97.96343807	336.9259937	1223.629821	155.397025	380.5530447	1030.639743	125.837295	188.088478	1048.04603	46.58044596	198.9344435	992.4836599	79.29350631	250.3281415	1046.59696	55.87355549	107.3044233	1041.056125	143.3687015	122.6453684	1040.72649	152.6622596	62.8570836	1045.845647	62.03409965	48.63079741	1061.365041	84.48225282	7.829639147
75	0.75	1371.77368	-0.000992919	1.25E+03	1261.193142	-160.4625222	1367.695308	1265.296603	163.6853836	1380.999021	1367.614967	-9.995724821	1618.138218	1356.454005	-119.563877	911.0772207	1361.735669	121.1976851	903.2196823	1177.799524	-5.695750883	925.2660323	1347.538834	-151.852957	653.9297125	1405.692633	-72.89581202	615.5249454	1362.262711	-144.0380039	554.457892	1346.746778	-128.7803171	477.8998492	1348.538802	-28.27664901	464.1134196	1327.43434	-139.9773559	403.2396145	1389.832743	-92.759033	367.6840298	1335.270396	-148.0192813	328.4844383	1317.508492	-126.2596959	81.59186887	1325.238275	-48.83628676	93.60228939	1257.224869	-81.79932302	60.09378515	1384.067268	-50.48617332	74.07756041	1379.939804	-145.6838404	56.41708203	1460.00255	-153.7519611	37.5853008	1461.714567	-57.55224411	49.24109132	1515.735991	-85.7250635	51.31659797	1317.000941	155.8898652	655.0652746	1386.036941	93.1736068	629.9576262	1321.471901	143.1256019	564.7082097	1314.713498	130.2344758	455.0129533	1315.636849	33.90932835	455.7379638	1277.578561	146.028905	396.452263	1271.644776	97.96343807	338.9358964	1239.924803	155.397025	382.117569	1049.682842	125.837295	186.9361766	1066.933608	46.58044596	198.0278344	1008.443259	79.29350631	247.065079	1070.087569	55.87355549	107.1221899	1063.738573	143.3687015	122.1466933	1066.589621	152.6622596	62.4255146	1072.458245	62.03409965	48.49166256	1090.125935	84.48225282	8.573761418
76	0.75833	1381.25954	-0.000992919	1.25E+03	1270.628835	-160.4625222	1369.559875	1274.726752	163.6853836	1382.865296	1376.946297	-9.995724821	1620.047107	1365.946988	-119.563877	912.683947	1371.211233	121.1976851	904.8147286	1187.324373	-5.695750883	927.2684556	1353.575304	-151.852957	654.1442371	1410.973579	-72.89581202	614.6192026	1366.367853	-144.0380039	554.4056472	1349.370529	-128.7803171	478.1628176	1350.894924	-28.27664901	464.3442356	1329.185056	-139.9773559	403.5606853	1391.434124	-92.759033	367.7442947	1336.708217	-148.0192813	328.7733723	1317.913303	-126.2596959	81.95729245	1325.693278	-48.83628676	93.93526116	1257.618285	-81.79932302	60.51640564	1384.477105	-50.48617332	74.35041671	1380.328793	-145.6838404	56.69482366	1460.36925	-153.7519611	37.76853076	1462.095027	-57.55224411	49.42229189	1516.118864	-85.7250635	51.43401757	1328.814581	155.8898652	657.7114889	1398.224481	93.1736068	633.6567798	1334.659351	143.1256019	567.4328795	1329.57019	130.2344758	457.6475173	1330.482406	33.90932835	458.3864881	1293.442036	146.028905	398.4427726	1288.549509	97.96343807	340.8284913	1256.053706	155.397025	383.4293872	1069.373072	125.837295	184.8390532	1086.420404	46.58044596	196.2409079	1024.892314	79.29350631	242.4851419	1094.549722	55.87355549	106.3532985	1087.339973	143.3687015	120.9842579	1093.650129	152.6622596	61.52898411	1100.317056	62.03409965	47.95897773	1120.270294	84.48225282	9.133027849
77	0.76667	1390.65061	-0.000992919	1.25E+03	1279.952444	-160.4625222	1371.346411	1284.042902	163.6853836	1384.654128	1386.129473	-9.995724821	1621.893202	1375.386044	-119.563877	914.2110179	1380.632886	121.1976851	906.3301848	1196.796097	-5.695750883	929.1902466	1359.527236	-151.852957	654.3420091	1416.148138	-72.89581202	613.7111852	1370.382976	-144.0380039	554.3740716	1351.91014	-128.7803171	478.4752414	1353.166242	-28.27664901	464.6296933	1330.855195	-139.9773559	403.9432042	1392.957932	-92.759033	367.873682	1338.073819	-148.0192813	329.1258828	1318.274224	-126.2596959	82.38836619	1326.102899	-48.83628676	94.3345618	1257.960337	-81.79932302	61.02256319	1384.83906	-50.48617332	74.67282296	1380.665181	-145.6838404	57.02325666	1460.678143	-153.7519611	37.98105649	1462.420797	-57.55224411	49.63230586	1516.44749	-85.7250635	51.56578365	1340.435258	155.8898652	660.2710632	1410.185216	93.1736068	637.2209725	1347.582824	143.1256019	570.0862476	1344.07923	130.2344758	460.2388529	1344.980682	33.90932835	460.9909168	1309.102966	146.028905	400.3018363	1305.472016	97.96343807	342.5943114	1272.052026	155.397025	384.4741136	1089.760555	125.837295	181.8473651	1106.554373	46.58044596	193.6194291	1041.997496	79.29350631	236.6659944	1119.886511	55.87355549	105.0706501	1111.791536	143.3687015	119.2310467	1121.742373	152.6622596	60.27573741	1129.230373	62.03409965	47.14094193	1151.531171	84.48225282	9.614145201
78	0.775	1399.951497	-0.000992919	1.25E+03	1289.171127	-160.4625222	1373.030827	1293.252489	163.6853836	1386.341335	1395.176894	-9.995724821	1623.650126	1384.771945	-119.563877	915.6395133	1390.001727	121.1976851	907.7473489	1206.214819	-5.695750883	931.0050243	1365.420665	-151.852957	654.5096194	1421.247549	-72.89581202	612.794521	1374.34669	-144.0380039	554.3509368	1354.413721	-128.7803171	478.8224335	1355.402603	-28.27664901	464.9552382	1332.491621	-139.9773559	404.376792	1394.444499	-92.759033	368.0504754	1339.400442	-148.0192813	329.5302268	1318.57953	-126.2596959	82.87679446	1326.457595	-48.83628676	94.79047721	1258.240489	-81.79932302	61.6024689	1385.142312	-50.48617332	75.0362881	1380.938333	-145.6838404	57.39386699	1460.918697	-153.7519611	38.2152141	1462.681223	-57.55224411	49.86347402	1516.711136	-85.7250635	51.7047941	1351.881073	155.8898652	662.7199943	1421.941147	93.1736068	640.6304194	1360.267072	143.1256019	572.6418966	1358.273073	130.2344758	462.7567326	1359.164107	33.90932835	463.5211112	1324.593982	146.028905	402.0134238	1322.433886	97.96343807	344.2321447	1287.958155	155.397025	385.2472335	1110.886244	125.837295	178.0436673	1127.374807	46.58044596	190.2396125	1059.898782	79.29350631	229.7280201	1146.007841	55.87355549	103.3584698	1137.027762	143.3687015	116.9747702	1150.71182	152.6622596	58.77258624	1159.020859	62.03409965	46.14116297	1183.665571	84.48225282	10.11028362
79	0.78333	1409.169591	-0.000992919	1.25E+03	1298.295964	-160.4625222	1374.589269	1302.366997	163.6853836	1387.90294	1404.107246	-9.995724821	1625.290741	1394.104987	-119.563877	916.9495831	1399.318294	121.1976851	909.0465259	1215.580304	-5.695750883	932.6875526	1371.277353	-151.852957	654.6307957	1426.298452	-72.89581202	611.8585026	1378.291434	-144.0380039	554.3200869	1356.92154	-128.7803171	479.1855029	1357.645754	-28.27664901	465.3019693	1334.133879	-139.9773559	404.8457962	1395.927886	-92.759033	368.2498813	1340.71651	-148.0192813	329.9698381	1318.821069	-126.2596959	83.40946875	1326.75097	-48.83628676	95.28871184	1258.45155	-81.79932302	62.24183475	1385.379397	-50.48617332	75.42749861	1381.140931	-145.6838404	57.79333121	1461.083642	-153.7519611	38.45833031	1462.86894	-57.55224411	50.10312172	1516.90235	-85.7250635	51.83879422	1363.170314	155.8898652	665.0361202	1433.514342	93.1736068	643.8681963	1372.738134	143.1256019	575.0758763	1372.186877	130.2344758	465.1740045	1373.0678	33.90932835	465.9500147	1339.947971	146.028905	403.5675371	1339.452205	97.96343807	345.7480209	1303.810002	155.397025	385.7536069	1132.776554	125.837295	173.5382935	1148.907181	46.58044596	186.2038641	1078.70194	79.29350631	221.8266264	1172.829057	55.87355549	101.3105731	1162.984405	143.3687015	114.3155063	1180.416087	152.6622596	57.12386244	1189.527209	62.03409965	45.05819054	1216.457859	84.48225282	10.70231471
80	0.79167	1418.31485	-0.000992919	1.26E+03	1307.341543	-160.4625222	1375.99895	1311.401525	163.6853836	1389.315996	1412.944721	-9.995724821	1626.788154	1403.385173	-119.563877	918.1211947	1408.582736	121.1976851	910.2077744	1224.892175	-5.695750883	934.2145438	1377.114588	-151.852957	654.6874603	1431.322518	-72.89581202	610.8891645	1382.243133	-144.0380039	554.2626942	1359.465636	-128.7803171	479.5427925	1359.928926	-28.27664901	465.6481045	1335.813732	-139.9773559	405.3306841	1397.435573	-92.759033	368.4456049	1342.045424	-148.0192813	330.424702	1318.994843	-126.2596959	83.96964154	1326.980324	-48.83628676	95.81159475	1258.590312	-81.79932302	62.92290123	1385.546822	-50.48617332	75.82966595	1381.269623	-145.6838404	58.20485325	1461.169661	-153.7519611	38.69426056	1462.980539	-57.55224411	50.33510147	1517.017632	-85.7250635	51.95205546	1374.320505	155.8898652	667.199512	1444.925824	93.1736068	646.9201549	1385.021767	143.1256019	577.3670476	1385.856176	130.2344758	467.4669608	1386.727245	33.90932835	468.2540159	1355.195541	146.028905	404.9597317	1356.537485	97.96343807	347.1536644	1319.641937	155.397025	386.0063616	1155.438919	125.837295	168.4629211	1171.158896	46.58044596	181.6347138	1098.474082	79.29350631	213.1422175	1200.268185	55.87355549	99.02826648	1189.595519	143.3687015	111.3627568	1210.723721	152.6622596	55.43113128	1220.603104	62.03409965	43.98601062	1249.719197	84.48225282	11.46156977
